<svg width="214" height="187" viewBox="0 0 214 187" fill="none" xmlns="http://www.w3.org/2000/svg">
<path d="M0 84.8794V0H28.6313C35.2512 0 40.6851 1.13283 44.9329 3.39849C49.1807 5.63652 52.3251 8.71727 54.3663 12.6407C56.4074 16.5642 57.428 21.0264 57.428 26.0275C57.428 31.0285 56.4074 35.4631 54.3663 39.3313C52.3251 43.1995 49.1945 46.2388 44.9742 48.4492C40.754 50.632 35.3615 51.7234 28.7968 51.7234H5.62695V42.4397H28.4658C32.9894 42.4397 36.6304 41.7766 39.3887 40.4504C42.1746 39.1241 44.1881 37.2453 45.4294 34.8138C46.6982 32.3548 47.3326 29.426 47.3326 26.0275C47.3326 22.629 46.6982 19.6588 45.4294 17.1168C44.1605 14.5748 42.1332 12.6131 39.3473 11.2316C36.5614 9.82247 32.8791 9.11791 28.3003 9.11791H10.2609V84.8794H0ZM39.8852 46.75L60.738 84.8794H48.8221L28.3003 46.75H39.8852Z" fill="black"/>
<path d="M74.5261 84.8794V0H125.665V9.11791H84.787V37.7979H123.017V46.9158H84.787V75.7615H126.327V84.8794H74.5261Z" fill="black"/>
<path d="M170.308 84.8794H144.16V0H171.467C179.687 0 186.72 1.69925 192.568 5.09774C198.416 8.4686 202.898 13.3177 206.015 19.6449C209.132 25.9446 210.69 33.4876 210.69 42.2739C210.69 51.1155 209.118 58.7276 205.973 65.1102C202.829 71.4651 198.25 76.3556 192.237 79.7817C186.224 83.1802 178.914 84.8794 170.308 84.8794ZM154.421 75.7615H169.646C176.652 75.7615 182.459 74.4077 187.065 71.6999C191.671 68.9922 195.106 65.1378 197.367 60.1367C199.629 55.1357 200.76 49.1814 200.76 42.2739C200.76 35.4217 199.643 29.5227 197.409 24.5769C195.175 19.6035 191.837 15.7906 187.396 13.1381C182.955 10.458 177.425 9.11791 170.805 9.11791H154.421V75.7615Z" fill="black"/>
<path d="M0 187V102.121H10.2609V139.918H55.442V102.121H65.7029V187H55.442V149.036H10.2609V187H0Z" fill="black"/>
<path d="M89.7209 187H78.9635L110.077 102.121H120.669L151.783 187H141.025L115.704 115.549H115.042L89.7209 187ZM93.6929 153.844H137.054V162.962H93.6929V153.844Z" fill="black"/>
<path d="M150.449 111.238V102.121H214V111.238H187.355V187H177.094V111.238H150.449Z" fill="black"/>
</svg>
