<svg width="26" height="26" viewBox="0 0 26 26" fill="none" xmlns="http://www.w3.org/2000/svg">
<path d="M1.57157 7.2029C1.20879 7.30656 0.879357 7.50315 0.615876 7.77322C0.352396 8.04329 0.163998 8.37748 0.0693246 8.74272C-0.0253489 9.10796 -0.0230163 9.49159 0.0760914 9.85565C0.175199 10.2197 0.367647 10.5516 0.634392 10.8184L4.33111 14.5109V21.6466H11.4743L15.1959 25.3629C15.3956 25.5644 15.6332 25.7244 15.895 25.8337C16.1568 25.9431 16.4377 25.9996 16.7214 26C16.9078 25.9996 17.0935 25.9756 17.2739 25.9285C17.639 25.8365 17.9734 25.65 18.2435 25.3877C18.5136 25.1254 18.7098 24.7966 18.8124 24.4344L26 0L1.57157 7.2029ZM2.17397 9.28641L20.6229 3.8474L6.50016 17.9477V13.6138L2.17397 9.28641ZM16.7355 23.8309L12.3724 19.4797H8.03865L22.1592 5.37076L16.7355 23.8309Z" fill="black"/>
</svg>
